<svg xmlns="http://www.w3.org/2000/svg" xmlns:xlink="http://www.w3.org/1999/xlink" width="300" zoomAndPan="magnify" viewBox="0 0 224.87999 74.999997" height="100" preserveAspectRatio="xMidYMid meet" version="1.0"><defs><g/><clipPath id="09a3787354"><path d="M 0 0.0195312 L 67.464844 0.0195312 L 67.464844 74.980469 L 0 74.980469 Z M 0 0.0195312 " clip-rule="nonzero"/></clipPath><clipPath id="676dd3af40"><path d="M 0 0.0195312 L 67.464844 0.0195312 L 67.464844 74.980469 L 0 74.980469 Z M 0 0.0195312 " clip-rule="nonzero"/></clipPath></defs><g clip-path="url(#09a3787354)"><path fill="#000000" d="M 0.511719 59.023438 C 0.527344 59.34375 0.574219 59.714844 0.714844 60.113281 C 0.777344 60.894531 0.929688 61.664062 1.214844 62.390625 C 1.605469 63.425781 2.265625 64.316406 3.007812 65.019531 C 4.511719 66.445312 6.277344 67.210938 7.910156 67.824219 C 8.734375 68.121094 9.550781 68.394531 10.328125 68.621094 C 11.105469 68.863281 11.847656 69.136719 12.578125 69.382812 C 14.046875 69.875 15.414062 70.355469 16.75 70.789062 C 19.417969 71.644531 21.777344 72.453125 23.925781 72.992188 C 24.46875 73.117188 24.988281 73.246094 25.492188 73.375 C 26 73.492188 26.492188 73.582031 26.96875 73.683594 C 27.828125 73.875 28.644531 73.988281 29.40625 74.105469 C 30.277344 74.328125 31.296875 74.542969 32.449219 74.703125 C 33.550781 74.828125 34.777344 74.9375 36.105469 74.828125 C 37.433594 74.726562 38.867188 74.476562 40.285156 73.867188 C 41.691406 73.269531 43.050781 72.324219 44.191406 71.125 C 44.777344 70.550781 45.292969 69.828125 45.785156 69.136719 C 45.992188 68.796875 46.207031 68.445312 46.417969 68.101562 L 46.496094 67.96875 L 46.554688 67.875 L 46.589844 67.804688 L 46.738281 67.535156 L 47.03125 66.988281 C 47.816406 65.53125 48.578125 64.109375 49.316406 62.738281 C 49.691406 62.066406 50.054688 61.410156 50.414062 60.761719 C 50.796875 60.125 51.183594 59.5 51.550781 58.882812 C 51.734375 58.582031 51.925781 58.269531 52.09375 57.980469 C 52.277344 57.667969 52.453125 57.363281 52.628906 57.058594 C 52.714844 56.902344 52.804688 56.753906 52.886719 56.609375 C 52.964844 56.449219 53.039062 56.304688 53.113281 56.152344 C 53.261719 55.847656 53.40625 55.546875 53.550781 55.257812 C 54.097656 54.074219 54.546875 52.960938 54.929688 51.941406 C 55.652344 49.984375 56.238281 48.390625 56.652344 47.261719 C 56.757812 47.085938 56.871094 46.894531 57 46.671875 C 57.160156 46.378906 57.34375 46.042969 57.554688 45.664062 C 57.765625 45.277344 57.957031 44.835938 58.1875 44.351562 C 58.417969 43.863281 58.660156 43.324219 58.929688 42.738281 C 59.199219 42.148438 59.464844 41.496094 59.761719 40.796875 C 60.347656 39.394531 61.015625 37.773438 61.765625 35.90625 C 62.5 34.042969 63.386719 31.941406 64.226562 29.503906 C 64.421875 28.886719 64.625 28.253906 64.832031 27.601562 C 65.03125 26.980469 65.242188 26.339844 65.484375 25.675781 C 65.953125 24.34375 66.476562 22.929688 66.898438 21.371094 C 67.105469 20.59375 67.292969 19.785156 67.390625 18.902344 C 67.410156 18.683594 67.433594 18.457031 67.457031 18.234375 C 67.488281 18.015625 67.4375 17.773438 67.433594 17.542969 C 67.410156 17.304688 67.417969 17.0625 67.367188 16.832031 C 67.3125 16.601562 67.261719 16.367188 67.210938 16.128906 C 66.953125 15.210938 66.515625 14.335938 66.03125 13.550781 C 64.570312 11.160156 63.539062 9.550781 60.96875 8.140625 C 59.296875 7.226562 57.59375 6.640625 55.949219 6.160156 C 54.304688 5.683594 52.714844 5.328125 51.1875 5.019531 C 48.144531 4.40625 45.375 4.007812 43 3.554688 C 42.714844 3.496094 42.433594 3.4375 42.160156 3.382812 C 41.875 3.304688 41.597656 3.234375 41.320312 3.160156 C 40.773438 3.015625 40.246094 2.878906 39.742188 2.746094 C 38.722656 2.472656 37.78125 2.246094 36.9375 2.046875 C 35.234375 1.644531 33.898438 1.382812 32.988281 1.226562 C 31.007812 0.882812 29.898438 0.0976562 27.753906 0.941406 C 27.628906 0.988281 27.5 0.988281 27.371094 1.054688 C 26.675781 1.210938 26.363281 1.410156 26.363281 1.671875 C 26.363281 1.679688 26.367188 1.675781 26.367188 1.683594 C 25.980469 2.023438 25.601562 2.417969 25.28125 2.898438 C 24.949219 3.414062 24.625 3.988281 24.390625 4.613281 C 24.246094 4.933594 24.15625 5.242188 24.039062 5.570312 C 23.921875 5.882812 23.796875 6.203125 23.675781 6.535156 C 22.667969 9.195312 21.453125 12.527344 19.871094 16.417969 C 19.46875 17.386719 19.046875 18.390625 18.609375 19.441406 C 18.15625 20.476562 17.628906 21.515625 17.113281 22.609375 C 16.847656 23.148438 16.582031 23.710938 16.308594 24.269531 C 16.03125 24.796875 15.707031 25.34375 15.367188 25.886719 C 14.6875 26.988281 13.957031 28.113281 13.199219 29.273438 C 10.15625 33.910156 7.5 38.054688 5.433594 41.78125 C 3.367188 45.503906 1.867188 48.800781 1.011719 51.628906 C 0.148438 54.449219 0.00390625 56.851562 0.371094 58.472656 C 0.414062 58.667969 0.460938 58.851562 0.511719 59.023438 " fill-opacity="1" fill-rule="nonzero"/></g><path fill="#666666" d="M 47.445312 39.953125 C 48.328125 40.128906 50.320312 40.664062 50.429688 41.769531 C 50.375 43.273438 49.609375 44.898438 47.847656 44.628906 C 47.285156 44.546875 46.695312 44.347656 46.179688 44.109375 C 45.234375 43.691406 45.152344 43.085938 45.460938 42.152344 C 45.640625 41.625 45.925781 41.132812 46.132812 40.613281 C 46.4375 39.835938 46.628906 39.78125 47.445312 39.953125 " fill-opacity="1" fill-rule="nonzero"/><path fill="#666666" d="M 44.019531 47.566406 C 44.894531 47.746094 46.890625 48.28125 47 49.386719 C 46.941406 50.890625 46.179688 52.515625 44.417969 52.246094 C 43.851562 52.164062 43.273438 51.964844 42.75 51.726562 C 41.804688 51.304688 41.726562 50.699219 42.03125 49.769531 C 42.207031 49.238281 42.492188 48.75 42.699219 48.230469 C 43.011719 47.453125 43.195312 47.398438 44.019531 47.566406 " fill-opacity="1" fill-rule="nonzero"/><path fill="#666666" d="M 35.125 44.460938 C 36.03125 44.628906 38.421875 45.144531 38.550781 46.296875 C 38.476562 48.046875 37.425781 49.480469 35.539062 49.226562 C 35 49.152344 34.460938 48.980469 33.949219 48.820312 C 32.601562 48.382812 32.371094 47.5625 32.957031 46.308594 C 33.214844 45.773438 33.484375 45.238281 33.726562 44.703125 C 33.980469 44.144531 34.644531 44.367188 35.125 44.460938 " fill-opacity="1" fill-rule="nonzero"/><path fill="#666666" d="M 31.683594 51.855469 C 32.582031 52.023438 34.972656 52.542969 35.101562 53.695312 C 35.03125 55.441406 33.980469 56.875 32.089844 56.621094 C 31.554688 56.550781 31.019531 56.375 30.5 56.214844 C 29.15625 55.78125 28.921875 54.957031 29.511719 53.707031 C 29.765625 53.167969 30.039062 52.632812 30.285156 52.097656 C 30.535156 51.539062 31.199219 51.761719 31.683594 51.855469 " fill-opacity="1" fill-rule="nonzero"/><path fill="#666666" d="M 30.203125 34.597656 C 31.105469 34.769531 33.5 35.285156 33.625 36.441406 C 33.550781 38.183594 32.503906 39.617188 30.613281 39.367188 C 30.074219 39.292969 29.539062 39.121094 29.023438 38.957031 C 27.675781 38.523438 27.449219 37.699219 28.03125 36.449219 C 28.289062 35.914062 28.558594 35.378906 28.804688 34.839844 C 29.054688 34.285156 29.722656 34.507812 30.203125 34.597656 " fill-opacity="1" fill-rule="nonzero"/><path fill="#666666" d="M 27.25 59.25 C 28.152344 59.417969 30.542969 59.9375 30.671875 61.089844 C 30.597656 62.835938 29.550781 64.269531 27.660156 64.019531 C 27.121094 63.945312 26.585938 63.773438 26.070312 63.609375 C 24.722656 63.175781 24.492188 62.351562 25.078125 61.101562 C 25.335938 60.5625 25.605469 60.03125 25.851562 59.492188 C 26.101562 58.933594 26.769531 59.15625 27.25 59.25 " fill-opacity="1" fill-rule="nonzero"/><path fill="#666666" d="M 26.265625 42.488281 C 27.164062 42.65625 29.558594 43.171875 29.6875 44.328125 C 29.613281 46.070312 28.5625 47.507812 26.675781 47.257812 C 26.136719 47.183594 25.601562 47.011719 25.082031 46.84375 C 23.738281 46.414062 23.507812 45.589844 24.09375 44.335938 C 24.351562 43.800781 24.621094 43.269531 24.867188 42.730469 C 25.117188 42.171875 25.785156 42.394531 26.265625 42.488281 " fill-opacity="1" fill-rule="nonzero"/><path fill="#666666" d="M 22.820312 49.882812 C 23.722656 50.050781 26.113281 50.566406 26.238281 51.722656 C 26.167969 53.46875 25.117188 54.902344 23.226562 54.652344 C 22.691406 54.574219 22.15625 54.40625 21.636719 54.242188 C 20.292969 53.808594 20.0625 52.984375 20.648438 51.730469 C 20.902344 51.195312 21.175781 50.664062 21.421875 50.125 C 21.671875 49.570312 22.335938 49.789062 22.820312 49.882812 " fill-opacity="1" fill-rule="nonzero"/><path fill="#666666" d="M 20.359375 31.640625 C 21.257812 31.808594 23.652344 32.328125 23.777344 33.480469 C 23.707031 35.226562 22.65625 36.660156 20.765625 36.40625 C 20.230469 36.335938 19.695312 36.160156 19.175781 36 C 17.832031 35.566406 17.601562 34.742188 18.1875 33.492188 C 18.441406 32.953125 18.714844 32.421875 18.960938 31.882812 C 19.210938 31.324219 19.875 31.546875 20.359375 31.640625 " fill-opacity="1" fill-rule="nonzero"/><path fill="#666666" d="M 18.386719 57.277344 C 19.289062 57.449219 21.683594 57.964844 21.808594 59.117188 C 21.734375 60.863281 20.6875 62.296875 18.796875 62.046875 C 18.257812 61.972656 17.722656 61.800781 17.207031 61.636719 C 15.863281 61.203125 15.632812 60.382812 16.21875 59.128906 C 16.472656 58.589844 16.746094 58.058594 16.992188 57.519531 C 17.238281 56.964844 17.90625 57.1875 18.386719 57.277344 " fill-opacity="1" fill-rule="nonzero"/><path fill="#666666" d="M 16.417969 39.53125 C 17.320312 39.699219 19.714844 40.214844 19.839844 41.371094 C 19.765625 43.117188 18.71875 44.550781 16.828125 44.296875 C 16.289062 44.222656 15.753906 44.050781 15.238281 43.886719 C 13.894531 43.453125 13.664062 42.632812 14.246094 41.378906 C 14.503906 40.84375 14.773438 40.308594 15.019531 39.773438 C 15.269531 39.214844 15.9375 39.4375 16.417969 39.53125 " fill-opacity="1" fill-rule="nonzero"/><path fill="#666666" d="M 12.972656 46.925781 C 13.871094 47.09375 16.265625 47.609375 16.394531 48.761719 C 16.320312 50.511719 15.269531 51.945312 13.382812 51.691406 C 12.84375 51.621094 12.308594 51.445312 11.789062 51.285156 C 10.449219 50.851562 10.214844 50.027344 10.800781 48.773438 C 11.054688 48.238281 11.328125 47.703125 11.574219 47.167969 C 11.824219 46.609375 12.488281 46.832031 12.972656 46.925781 " fill-opacity="1" fill-rule="nonzero"/><path fill="#666666" d="M 8.542969 54.320312 C 9.441406 54.488281 11.835938 55.007812 11.964844 56.160156 C 11.890625 57.90625 10.839844 59.339844 8.949219 59.085938 C 8.414062 59.015625 7.878906 58.839844 7.359375 58.679688 C 6.015625 58.246094 5.785156 57.421875 6.371094 56.171875 C 6.625 55.632812 6.898438 55.101562 7.144531 54.5625 C 7.394531 54.003906 8.058594 54.226562 8.542969 54.320312 " fill-opacity="1" fill-rule="nonzero"/><path fill="#666666" d="M 39.066406 36.574219 C 39.96875 36.738281 42.359375 37.257812 42.488281 38.410156 C 42.414062 40.15625 41.367188 41.589844 39.476562 41.339844 C 38.9375 41.265625 38.402344 41.09375 37.886719 40.929688 C 36.542969 40.496094 36.308594 39.671875 36.894531 38.421875 C 37.152344 37.882812 37.421875 37.351562 37.667969 36.8125 C 37.917969 36.253906 38.585938 36.476562 39.066406 36.574219 " fill-opacity="1" fill-rule="nonzero"/><path fill="#29abe2" d="M 65.792969 16.519531 C 66.199219 17.972656 65.863281 19.523438 65.496094 21.003906 C 65.109375 22.46875 64.609375 23.867188 64.148438 25.210938 C 63.914062 25.878906 63.695312 26.554688 63.496094 27.214844 C 63.296875 27.851562 63.113281 28.46875 62.929688 29.070312 C 62.148438 31.464844 61.3125 33.570312 60.621094 35.460938 C 59.921875 37.347656 59.3125 38.992188 58.785156 40.410156 C 58.523438 41.121094 58.285156 41.777344 58.0625 42.386719 C 57.828125 42.980469 57.617188 43.527344 57.425781 44.019531 C 57.234375 44.519531 57.082031 44.976562 56.914062 45.371094 C 56.816406 45.609375 56.726562 45.820312 56.640625 46.027344 C 56.488281 46.25 56.316406 46.519531 56.121094 46.84375 C 55.511719 47.917969 54.734375 49.519531 53.847656 51.484375 C 53.394531 52.46875 52.898438 53.535156 52.320312 54.640625 C 52.167969 54.917969 52.015625 55.191406 51.859375 55.476562 C 51.785156 55.617188 51.703125 55.761719 51.632812 55.902344 C 51.542969 56.042969 51.453125 56.179688 51.367188 56.316406 C 51.191406 56.597656 51.015625 56.878906 50.835938 57.164062 C 50.644531 57.460938 50.449219 57.761719 50.257812 58.066406 C 49.867188 58.667969 49.464844 59.28125 49.066406 59.921875 C 48.683594 60.582031 48.292969 61.257812 47.894531 61.945312 C 47.125 63.316406 46.367188 64.742188 45.574219 66.1875 L 45.285156 66.730469 L 45.136719 66.996094 L 45.101562 67.066406 L 45.09375 67.078125 L 45.082031 67.101562 L 45.003906 67.230469 C 44.792969 67.582031 44.582031 67.929688 44.375 68.273438 C 43.925781 68.894531 43.53125 69.476562 43.011719 70.003906 C 42.019531 71.074219 40.875 71.902344 39.667969 72.464844 C 38.449219 73.027344 37.183594 73.304688 35.980469 73.449219 C 34.851562 73.601562 33.769531 73.578125 32.773438 73.539062 C 31.886719 73.445312 30.910156 73.3125 29.804688 73.105469 C 29.003906 72.941406 28.132812 72.800781 27.210938 72.5625 C 26.746094 72.449219 26.265625 72.351562 25.773438 72.21875 C 25.28125 72.082031 24.773438 71.945312 24.246094 71.804688 C 22.144531 71.222656 19.820312 70.378906 17.195312 69.496094 C 15.886719 69.054688 14.488281 68.546875 13.023438 68.035156 C 12.285156 67.78125 11.53125 67.5 10.757812 67.253906 C 9.972656 67.011719 9.199219 66.75 8.417969 66.460938 C 6.867188 65.871094 5.269531 65.140625 4.027344 63.953125 C 3.683594 63.625 3.371094 63.253906 3.105469 62.851562 C 3.121094 62.855469 3.125 62.867188 3.140625 62.871094 C 3.25 62.9375 3.386719 63.023438 3.550781 63.121094 C 3.710938 63.210938 3.902344 63.3125 4.121094 63.429688 C 4.992188 63.886719 6.300781 64.417969 8.003906 64.921875 C 9.714844 65.414062 11.808594 65.871094 14.238281 66.304688 C 15.449219 66.523438 16.75 66.730469 18.082031 66.992188 C 18.414062 67.054688 18.742188 67.128906 19.054688 67.210938 C 19.378906 67.300781 19.707031 67.402344 20.050781 67.515625 C 20.738281 67.738281 21.441406 67.984375 22.160156 68.238281 C 25.050781 69.253906 28.230469 70.527344 31.910156 71.1875 C 33.734375 71.488281 35.757812 71.65625 37.796875 71.019531 C 38.304688 70.847656 38.800781 70.636719 39.269531 70.339844 C 39.746094 70.0625 40.148438 69.695312 40.527344 69.359375 C 41.320312 68.691406 41.996094 67.875 42.644531 67.046875 C 45.167969 63.648438 46.613281 59.542969 48.398438 55.5625 C 48.847656 54.570312 49.328125 53.585938 49.859375 52.644531 C 50.40625 51.664062 50.957031 50.671875 51.511719 49.671875 C 52.058594 48.671875 52.652344 47.679688 53.171875 46.648438 C 53.671875 45.605469 54.179688 44.558594 54.691406 43.503906 C 56.742188 39.285156 58.394531 35.003906 59.902344 30.851562 C 60.628906 28.800781 61.539062 26.84375 62.324219 24.851562 C 63.121094 22.871094 63.847656 20.890625 64.378906 18.882812 C 64.644531 17.878906 64.863281 16.867188 64.980469 15.835938 C 65.019531 15.496094 65.039062 15.152344 65.050781 14.816406 C 65.375 15.386719 65.625 15.949219 65.792969 16.519531 " fill-opacity="1" fill-rule="nonzero"/><path fill="#48c4ef" d="M 13.417969 56.445312 C 13.441406 56.359375 13.453125 56.269531 13.441406 56.160156 C 13.445312 56.027344 13.421875 55.917969 13.375 55.824219 C 12.910156 53.902344 10.410156 53.171875 8.679688 52.847656 C 7.808594 52.679688 6.898438 52.605469 6.222656 53.261719 C 5.441406 54.023438 4.882812 55.730469 4.566406 56.753906 C 3.761719 59.347656 7.054688 60.3125 8.949219 60.566406 C 11.550781 60.917969 13.199219 58.796875 13.417969 56.445312 Z M 17.847656 49.050781 C 17.871094 48.96875 17.886719 48.871094 17.871094 48.761719 C 17.875 48.628906 17.851562 48.523438 17.808594 48.429688 C 17.339844 46.507812 14.84375 45.777344 13.109375 45.449219 C 12.238281 45.28125 11.328125 45.210938 10.652344 45.867188 C 9.871094 46.628906 9.316406 48.335938 9 49.359375 C 8.191406 51.953125 11.484375 52.914062 13.382812 53.171875 C 15.980469 53.523438 17.628906 51.402344 17.847656 49.050781 Z M 21.292969 41.65625 C 21.316406 41.570312 21.332031 41.476562 21.316406 41.371094 C 21.320312 41.234375 21.296875 41.128906 21.253906 41.03125 C 20.785156 39.109375 18.289062 38.382812 16.554688 38.054688 C 15.683594 37.886719 14.773438 37.8125 14.101562 38.46875 C 13.316406 39.234375 12.761719 40.941406 12.445312 41.964844 C 11.636719 44.558594 14.933594 45.519531 16.828125 45.777344 C 19.429688 46.128906 21.074219 44.003906 21.292969 41.65625 Z M 23.261719 59.402344 C 23.289062 59.320312 23.304688 59.226562 23.289062 59.117188 C 23.292969 58.984375 23.265625 58.875 23.222656 58.78125 C 22.753906 56.859375 20.257812 56.128906 18.527344 55.804688 C 17.652344 55.636719 16.746094 55.5625 16.070312 56.21875 C 15.285156 56.984375 14.730469 58.6875 14.414062 59.714844 C 13.605469 62.308594 16.902344 63.269531 18.796875 63.527344 C 21.398438 63.875 23.046875 61.753906 23.261719 59.402344 Z M 25.230469 33.765625 C 25.257812 33.683594 25.269531 33.589844 25.257812 33.480469 C 25.261719 33.347656 25.234375 33.238281 25.191406 33.144531 C 24.722656 31.222656 22.226562 30.492188 20.496094 30.167969 C 19.625 30 18.714844 29.925781 18.035156 30.582031 C 17.257812 31.34375 16.699219 33.050781 16.386719 34.078125 C 15.574219 36.667969 18.871094 37.632812 20.765625 37.886719 C 23.367188 38.238281 25.015625 36.117188 25.230469 33.765625 Z M 27.695312 52.007812 C 27.71875 51.925781 27.734375 51.832031 27.71875 51.722656 C 27.722656 51.589844 27.699219 51.480469 27.65625 51.386719 C 27.1875 49.464844 24.6875 48.734375 22.957031 48.410156 C 22.085938 48.242188 21.175781 48.167969 20.5 48.824219 C 19.71875 49.589844 19.160156 51.292969 18.847656 52.320312 C 18.035156 54.914062 21.332031 55.875 23.226562 56.128906 C 25.828125 56.480469 27.476562 54.359375 27.695312 52.007812 Z M 29.671875 29.609375 C 30.617188 28.675781 31.886719 26.65625 30.53125 25.558594 C 29.816406 24.976562 28.667969 24.980469 27.839844 24.621094 C 26.421875 23.996094 25.015625 23.304688 23.59375 22.710938 C 21.820312 21.976562 21.019531 23.753906 20.601562 25.15625 C 20.1875 26.5625 20.5 27.027344 21.214844 27.351562 C 21.71875 27.578125 22.425781 27.738281 23.214844 28.101562 C 23.902344 28.425781 24.582031 28.773438 25.269531 29.109375 C 26.503906 29.679688 28.460938 30.808594 29.671875 29.609375 Z M 31.140625 44.613281 C 31.164062 44.53125 31.179688 44.4375 31.164062 44.328125 C 31.171875 44.195312 31.144531 44.085938 31.101562 43.992188 C 30.632812 42.066406 28.136719 41.339844 26.40625 41.011719 C 25.53125 40.847656 24.621094 40.773438 23.949219 41.425781 C 23.164062 42.191406 22.605469 43.898438 22.292969 44.925781 C 21.484375 47.519531 24.777344 48.476562 26.675781 48.734375 C 29.269531 49.085938 30.921875 46.964844 31.140625 44.613281 Z M 32.125 61.375 C 32.148438 61.292969 32.164062 61.199219 32.148438 61.089844 C 32.152344 60.957031 32.128906 60.847656 32.085938 60.757812 C 31.617188 58.832031 29.121094 58.101562 27.386719 57.777344 C 26.515625 57.609375 25.605469 57.535156 24.929688 58.191406 C 24.148438 58.953125 23.59375 60.660156 23.277344 61.6875 C 22.46875 64.28125 25.765625 65.242188 27.660156 65.496094 C 30.253906 65.847656 31.910156 63.730469 32.125 61.375 Z M 34.734375 8.273438 C 34.808594 8.0625 34.261719 7.605469 33.226562 7.058594 C 32.710938 6.789062 32.0625 6.5 31.273438 6.296875 C 30.492188 6.09375 29.535156 5.945312 28.472656 6.25 C 27.300781 6.578125 26.65625 7.496094 26.265625 8.171875 C 25.851562 8.875 25.613281 9.53125 25.417969 10.085938 C 25.246094 10.640625 25.144531 11.121094 25.117188 11.460938 C 25.105469 11.792969 25.148438 11.996094 25.257812 12.035156 C 25.367188 12.074219 25.527344 11.945312 25.726562 11.675781 C 25.9375 11.429688 26.183594 11.058594 26.480469 10.585938 C 26.792969 10.128906 27.132812 9.558594 27.546875 9.011719 C 27.644531 8.863281 27.753906 8.738281 27.867188 8.609375 L 28.027344 8.414062 C 28.082031 8.351562 28.136719 8.316406 28.191406 8.265625 L 28.269531 8.191406 L 28.308594 8.152344 L 28.324219 8.144531 L 28.558594 8 C 28.664062 7.925781 28.707031 7.9375 28.765625 7.90625 C 28.824219 7.890625 28.859375 7.859375 28.949219 7.84375 C 29.558594 7.660156 30.292969 7.695312 30.96875 7.792969 C 31.644531 7.890625 32.28125 8.042969 32.824219 8.164062 C 33.910156 8.410156 34.65625 8.5 34.734375 8.273438 Z M 35.078125 36.726562 C 35.101562 36.640625 35.121094 36.546875 35.101562 36.441406 C 35.105469 36.304688 35.082031 36.199219 35.039062 36.101562 C 34.570312 34.179688 32.074219 33.449219 30.339844 33.125 C 29.472656 32.957031 28.558594 32.882812 27.886719 33.539062 C 27.101562 34.304688 26.546875 36.007812 26.230469 37.035156 C 25.421875 39.628906 28.71875 40.589844 30.613281 40.847656 C 33.207031 41.195312 34.859375 39.074219 35.078125 36.726562 Z M 36.554688 53.980469 C 36.582031 53.894531 36.59375 53.800781 36.582031 53.695312 C 36.585938 53.5625 36.558594 53.453125 36.515625 53.359375 C 36.046875 51.4375 33.550781 50.707031 31.820312 50.382812 C 30.949219 50.210938 30.039062 50.140625 29.363281 50.796875 C 28.582031 51.558594 28.023438 53.265625 27.707031 54.289062 C 26.898438 56.882812 30.195312 57.847656 32.089844 58.101562 C 34.683594 58.449219 36.339844 56.332031 36.554688 53.980469 Z M 40 46.585938 C 40.027344 46.503906 40.042969 46.40625 40.027344 46.296875 C 40.03125 46.164062 40.007812 46.058594 39.960938 45.964844 C 39.492188 44.042969 37 43.3125 35.265625 42.984375 C 34.394531 42.816406 33.484375 42.746094 32.808594 43.402344 C 32.023438 44.164062 31.46875 45.871094 31.15625 46.894531 C 30.347656 49.488281 33.640625 50.449219 35.539062 50.707031 C 38.132812 51.058594 39.785156 48.9375 40 46.585938 Z M 41.488281 33.554688 C 42.433594 32.621094 43.703125 30.601562 42.347656 29.503906 C 41.632812 28.917969 40.484375 28.925781 39.65625 28.5625 C 38.242188 27.941406 36.832031 27.246094 35.410156 26.65625 C 33.03125 25.675781 32.589844 28.796875 32.023438 30.304688 C 31.636719 31.3125 34.476562 31.796875 35.03125 32.046875 C 35.71875 32.371094 36.398438 32.71875 37.089844 33.050781 C 38.324219 33.625 40.277344 34.753906 41.488281 33.554688 Z M 39 66.332031 C 40.546875 64.230469 42.824219 61.898438 42.65625 59.085938 C 42.484375 56.226562 38.898438 55.351562 36.847656 56.699219 C 35.664062 57.472656 34.855469 58.851562 34.183594 60.050781 C 33.265625 61.691406 32.121094 63.574219 31.910156 65.476562 C 31.644531 67.984375 35.421875 68.285156 37.03125 68.519531 C 37.375 68.570312 37.671875 68.488281 37.867188 68.179688 C 38.246094 67.5625 38.609375 66.9375 39 66.332031 Z M 43.941406 38.695312 C 43.964844 38.613281 43.980469 38.519531 43.964844 38.410156 C 43.96875 38.277344 43.945312 38.167969 43.902344 38.074219 C 43.433594 36.152344 40.9375 35.421875 39.203125 35.097656 C 38.332031 34.929688 37.421875 34.855469 36.746094 35.511719 C 35.964844 36.273438 35.410156 37.984375 35.09375 39.007812 C 34.285156 41.601562 37.582031 42.5625 39.476562 42.816406 C 42.070312 43.167969 43.722656 41.046875 43.941406 38.695312 Z M 48.335938 49.609375 C 48.351562 49.539062 48.355469 49.46875 48.351562 49.386719 C 48.355469 49.277344 48.335938 49.179688 48.304688 49.101562 C 47.929688 47.320312 45.773438 46.546875 44.167969 46.214844 C 43.398438 46.058594 42.386719 45.976562 41.902344 46.75 C 41.304688 47.710938 40.800781 48.984375 40.53125 50.082031 C 39.976562 52.378906 42.601562 53.332031 44.378906 53.601562 C 46.820312 53.976562 48.175781 51.730469 48.335938 49.609375 Z M 51.765625 41.992188 C 51.777344 41.921875 51.789062 41.851562 51.777344 41.769531 C 51.785156 41.660156 51.769531 41.566406 51.734375 41.484375 C 51.355469 39.707031 49.199219 38.929688 47.601562 38.597656 C 46.824219 38.441406 45.8125 38.355469 45.335938 39.128906 C 44.738281 40.09375 44.230469 41.371094 43.964844 42.46875 C 43.40625 44.761719 46.03125 45.71875 47.808594 45.988281 C 50.253906 46.359375 51.609375 44.113281 51.765625 41.992188 Z M 53.796875 36.511719 C 54.742188 35.582031 56.011719 33.558594 54.652344 32.460938 C 53.941406 31.878906 52.792969 31.882812 51.964844 31.523438 C 50.546875 30.898438 49.140625 30.207031 47.714844 29.617188 C 46.011719 28.910156 45.296875 30.488281 44.804688 31.816406 C 43.808594 34.464844 45.242188 34.03125 47.335938 35.003906 C 48.027344 35.328125 48.707031 35.675781 49.394531 36.007812 C 50.632812 36.582031 52.585938 37.710938 53.796875 36.511719 Z M 54.433594 23.757812 C 55.179688 22.570312 57.113281 19.863281 56.90625 18.40625 C 56.800781 17.710938 56.269531 17.511719 55.664062 17.292969 C 53.949219 16.6875 52.074219 16.34375 50.320312 15.835938 C 46.140625 14.621094 41.976562 13.367188 37.785156 12.1875 C 35.285156 11.480469 32.898438 9.980469 30.25 9.960938 C 27.703125 9.945312 27.1875 13.558594 26.210938 15.375 C 25.765625 15.578125 25.683594 16.4375 26.304688 16.691406 C 29.953125 18.210938 33.683594 19.582031 37.40625 20.902344 C 39.4375 21.625 41.503906 22.230469 43.566406 22.839844 C 45.546875 23.421875 47.714844 23.683594 49.597656 24.523438 C 51.570312 25.398438 53.144531 25.800781 54.433594 23.757812 Z M 58.578125 23.035156 C 58.589844 22.558594 58.539062 22.289062 58.425781 22.265625 C 58.191406 22.199219 57.816406 23.1875 57.179688 24.625 C 56.863281 25.328125 56.425781 26.136719 55.761719 26.691406 C 55.4375 26.976562 55.03125 27.171875 54.574219 27.296875 C 52.375 28.046875 49.140625 27.066406 47 26.488281 C 45.4375 26.074219 44.417969 25.832031 44.335938 26.054688 C 44.253906 26.261719 45.09375 26.835938 46.597656 27.550781 C 46.980469 27.722656 47.394531 27.910156 47.855469 28.082031 C 48.085938 28.167969 48.328125 28.25 48.574219 28.34375 C 48.828125 28.421875 49.089844 28.5 49.355469 28.582031 C 50.433594 28.875 51.675781 29.140625 53.011719 29.128906 L 53.261719 29.132812 L 53.320312 29.136719 L 53.417969 29.132812 L 53.539062 29.121094 C 53.691406 29.113281 53.84375 29.097656 53.996094 29.089844 C 54.34375 29.03125 54.726562 28.980469 55.046875 28.855469 C 55.714844 28.648438 56.335938 28.292969 56.796875 27.824219 C 57.726562 26.894531 58.078125 25.832031 58.285156 25.015625 C 58.5 24.179688 58.5625 23.5 58.578125 23.035156 Z M 63.359375 12.859375 C 63.5625 13.699219 63.570312 14.667969 63.457031 15.65625 C 63.242188 17.648438 62.628906 19.734375 61.878906 21.851562 C 61.140625 23.976562 60.214844 26.125 59.28125 28.410156 C 59.164062 28.703125 59.050781 29 58.929688 29.300781 C 58.828125 29.585938 58.722656 29.878906 58.617188 30.167969 C 58.398438 30.746094 58.183594 31.335938 57.96875 31.929688 C 57.53125 33.109375 57.109375 34.324219 56.628906 35.53125 C 56.132812 36.730469 55.621094 37.945312 55.101562 39.179688 C 54.835938 39.796875 54.59375 40.429688 54.3125 41.042969 C 54.011719 41.65625 53.714844 42.269531 53.414062 42.894531 C 52.808594 44.128906 52.234375 45.363281 51.628906 46.554688 C 50.972656 47.71875 50.324219 48.871094 49.695312 50.007812 C 49.375 50.566406 49.0625 51.132812 48.75 51.6875 C 48.441406 52.257812 48.101562 52.847656 47.820312 53.421875 C 47.242188 54.574219 46.738281 55.730469 46.25 56.859375 C 45.273438 59.113281 44.363281 61.273438 43.296875 63.222656 C 42.226562 65.171875 41.015625 66.921875 39.503906 68.21875 C 39.121094 68.558594 38.777344 68.851562 38.386719 69.066406 C 38.003906 69.285156 37.59375 69.464844 37.160156 69.582031 C 36.304688 69.832031 35.386719 69.898438 34.476562 69.867188 C 32.65625 69.789062 30.882812 69.371094 29.222656 68.890625 C 25.886719 67.902344 22.96875 66.625 20.1875 65.714844 C 19.835938 65.601562 19.480469 65.488281 19.113281 65.402344 C 18.757812 65.316406 18.417969 65.242188 18.082031 65.171875 C 17.417969 65.046875 16.777344 64.921875 16.15625 64.796875 C 14.925781 64.566406 13.789062 64.347656 12.75 64.125 C 10.667969 63.679688 8.960938 63.214844 7.644531 62.75 C 6.328125 62.292969 5.402344 61.84375 4.824219 61.511719 C 4.246094 61.179688 3.992188 60.980469 3.992188 60.980469 C 3.949219 60.953125 3.914062 60.921875 3.875 60.886719 C 3.675781 60.5625 3.382812 60.199219 3.015625 59.679688 C 3.015625 59.679688 2.992188 59.640625 2.9375 59.5625 C 2.890625 59.484375 2.804688 59.371094 2.726562 59.199219 C 2.542969 58.882812 2.320312 58.363281 2.191406 57.617188 C 2.050781 56.875 2.027344 55.902344 2.160156 54.761719 C 2.300781 53.609375 2.605469 52.300781 3.066406 50.875 C 3.992188 48.019531 5.53125 44.722656 7.492188 41.207031 C 9.453125 37.683594 11.835938 33.941406 14.386719 30.050781 C 15.019531 29.066406 15.644531 28.101562 16.265625 27.144531 C 16.570312 26.664062 16.871094 26.179688 17.164062 25.683594 C 17.304688 25.4375 17.449219 25.1875 17.585938 24.933594 C 17.707031 24.6875 17.832031 24.433594 17.949219 24.1875 C 18.925781 22.191406 19.914062 20.28125 20.683594 18.390625 C 21.085938 17.460938 21.484375 16.550781 21.867188 15.660156 C 22.226562 14.769531 22.582031 13.902344 22.917969 13.0625 C 23.601562 11.382812 24.238281 9.820312 24.8125 8.390625 C 25.109375 7.667969 25.386719 6.988281 25.644531 6.34375 C 25.898438 5.703125 26.109375 5.128906 26.378906 4.660156 C 26.894531 3.671875 27.542969 3.101562 28.117188 2.796875 C 28.269531 2.722656 28.417969 2.664062 28.558594 2.617188 C 28.710938 2.644531 28.875 2.675781 29.046875 2.707031 C 29.359375 2.757812 29.703125 2.808594 30.082031 2.855469 C 30.460938 2.90625 30.867188 2.96875 31.3125 3.03125 C 31.3125 3.03125 32.738281 3.171875 35.539062 3.738281 C 36.945312 4.023438 38.667969 4.417969 40.777344 4.949219 C 41.039062 5.015625 41.308594 5.082031 41.589844 5.152344 C 41.855469 5.21875 42.183594 5.269531 42.46875 5.324219 C 43.054688 5.433594 43.65625 5.53125 44.277344 5.628906 C 45.515625 5.820312 46.835938 6.027344 48.25 6.25 C 51.039062 6.722656 54.183594 7.25 57.445312 8.367188 C 58.253906 8.648438 59.0625 8.972656 59.855469 9.367188 C 60.636719 9.761719 61.394531 10.230469 62.035156 10.804688 C 62.363281 11.09375 62.644531 11.417969 62.878906 11.746094 C 63.09375 12.066406 63.246094 12.4375 63.359375 12.859375 " fill-opacity="1" fill-rule="nonzero"/><path fill="#a09890" d="M 55.527344 18.761719 C 55.234375 20.183594 52.902344 24.253906 51.296875 23.777344 C 50.21875 23.457031 49.316406 22.90625 48.214844 22.636719 C 46.777344 22.28125 45.347656 21.949219 43.925781 21.53125 C 38.386719 19.898438 32.917969 17.945312 27.570312 15.757812 C 27.925781 15.101562 28.1875 14.429688 28.449219 13.710938 C 29.246094 11.515625 30.140625 11.0625 32.253906 11.644531 C 34.316406 12.21875 36.253906 13.164062 38.328125 13.742188 C 39.792969 14.160156 55.527344 18.539062 55.527344 18.761719 " fill-opacity="1" fill-rule="nonzero"/><path fill="#ff0000" d="M 41.121094 58.890625 C 41.492188 59.792969 40.847656 60.976562 40.445312 61.742188 C 39.710938 63.125 38.652344 64.328125 37.726562 65.585938 C 37.417969 66.058594 37.132812 66.542969 36.835938 67.027344 C 35.582031 66.902344 33.511719 66.707031 33.390625 65.476562 C 33.273438 64.296875 34.550781 62.519531 35.097656 61.46875 C 35.632812 60.449219 36.203125 59.472656 36.949219 58.589844 C 38.082031 57.253906 40.292969 56.90625 41.121094 58.890625 " fill-opacity="1" fill-rule="nonzero"/><path fill="#ffe600" d="M 53.570312 33.542969 C 54.195312 33.714844 53.140625 35.054688 53 35.226562 C 52.316406 36.058594 50.910156 35.085938 50.140625 34.730469 C 49.367188 34.355469 47.480469 33.09375 46.042969 32.730469 C 46.089844 32.558594 46.136719 32.390625 46.175781 32.214844 C 46.535156 30.722656 47.796875 31.339844 48.707031 31.738281 C 49.882812 32.261719 51.078125 32.855469 52.304688 33.234375 C 52.714844 33.363281 53.152344 33.425781 53.570312 33.542969 " fill-opacity="1" fill-rule="nonzero"/><path fill="#ffe600" d="M 41.261719 30.585938 C 41.886719 30.761719 40.835938 32.09375 40.691406 32.265625 C 40.007812 33.101562 38.601562 32.128906 37.828125 31.777344 C 37.058594 31.394531 35.171875 30.132812 33.734375 29.773438 C 33.777344 29.601562 33.828125 29.433594 33.867188 29.253906 C 34.226562 27.765625 35.488281 28.382812 36.398438 28.78125 C 37.574219 29.304688 38.765625 29.898438 39.996094 30.277344 C 40.40625 30.40625 40.84375 30.46875 41.261719 30.585938 " fill-opacity="1" fill-rule="nonzero"/><path fill="#ffe600" d="M 29.445312 26.644531 C 30.070312 26.816406 29.019531 28.148438 28.875 28.324219 C 28.191406 29.15625 26.789062 28.183594 26.015625 27.832031 C 25.238281 27.449219 23.355469 26.1875 21.917969 25.828125 C 21.960938 25.65625 22.011719 25.488281 22.050781 25.308594 C 22.410156 23.824219 23.671875 24.4375 24.582031 24.839844 C 25.757812 25.359375 26.949219 25.953125 28.179688 26.332031 C 28.589844 26.460938 29.027344 26.523438 29.445312 26.644531 " fill-opacity="1" fill-rule="nonzero"/><g clip-path="url(#676dd3af40)"><path fill="#000000" d="M 63.457031 15.65625 C 63.570312 14.667969 63.5625 13.699219 63.359375 12.859375 C 63.246094 12.4375 63.09375 12.066406 62.878906 11.746094 C 62.644531 11.417969 62.363281 11.09375 62.035156 10.804688 C 61.394531 10.230469 60.636719 9.761719 59.855469 9.367188 C 59.0625 8.972656 58.253906 8.648438 57.445312 8.367188 C 54.183594 7.25 51.039062 6.722656 48.25 6.25 C 46.835938 6.027344 45.515625 5.820312 44.277344 5.628906 C 43.65625 5.53125 43.054688 5.433594 42.46875 5.324219 C 42.183594 5.269531 41.855469 5.21875 41.589844 5.152344 C 41.308594 5.082031 41.039062 5.015625 40.777344 4.949219 C 38.667969 4.417969 36.945312 4.023438 35.539062 3.738281 C 32.738281 3.171875 31.3125 3.03125 31.3125 3.03125 C 30.867188 2.96875 30.460938 2.90625 30.082031 2.855469 C 29.703125 2.808594 29.359375 2.757812 29.046875 2.707031 C 28.875 2.675781 28.710938 2.644531 28.558594 2.617188 C 28.417969 2.664062 28.269531 2.722656 28.117188 2.796875 C 27.542969 3.101562 26.894531 3.671875 26.378906 4.660156 C 26.109375 5.128906 25.898438 5.703125 25.644531 6.34375 C 25.386719 6.988281 25.109375 7.667969 24.8125 8.390625 C 24.238281 9.820312 23.601562 11.382812 22.917969 13.0625 C 22.582031 13.902344 22.226562 14.769531 21.867188 15.660156 C 21.484375 16.550781 21.085938 17.460938 20.683594 18.390625 C 19.914062 20.28125 18.925781 22.191406 17.949219 24.1875 C 17.832031 24.433594 17.707031 24.6875 17.585938 24.933594 C 17.449219 25.1875 17.304688 25.4375 17.164062 25.683594 C 16.871094 26.179688 16.570312 26.664062 16.265625 27.144531 C 15.644531 28.101562 15.019531 29.066406 14.386719 30.050781 C 11.835938 33.941406 9.453125 37.683594 7.492188 41.207031 C 5.53125 44.722656 3.992188 48.019531 3.066406 50.875 C 2.605469 52.300781 2.300781 53.609375 2.160156 54.761719 C 2.027344 55.902344 2.050781 56.875 2.191406 57.617188 C 2.320312 58.363281 2.542969 58.882812 2.726562 59.199219 C 2.804688 59.371094 2.890625 59.484375 2.9375 59.5625 C 2.992188 59.640625 3.015625 59.679688 3.015625 59.679688 C 3.382812 60.199219 3.675781 60.5625 3.875 60.886719 C 3.914062 60.921875 3.949219 60.953125 3.992188 60.980469 C 3.992188 60.980469 4.246094 61.179688 4.824219 61.511719 C 5.402344 61.84375 6.328125 62.292969 7.644531 62.75 C 8.960938 63.214844 10.667969 63.679688 12.75 64.125 C 13.789062 64.347656 14.925781 64.566406 16.15625 64.796875 C 16.777344 64.921875 17.417969 65.046875 18.082031 65.171875 C 18.417969 65.242188 18.757812 65.316406 19.113281 65.402344 C 19.480469 65.488281 19.835938 65.601562 20.1875 65.714844 C 22.96875 66.625 25.886719 67.902344 29.222656 68.890625 C 30.882812 69.371094 32.65625 69.789062 34.476562 69.867188 C 35.386719 69.898438 36.304688 69.832031 37.160156 69.582031 C 37.59375 69.464844 38.003906 69.285156 38.386719 69.066406 C 38.777344 68.851562 39.121094 68.558594 39.503906 68.21875 C 41.015625 66.921875 42.226562 65.171875 43.296875 63.222656 C 44.363281 61.273438 45.273438 59.113281 46.25 56.859375 C 46.738281 55.730469 47.242188 54.574219 47.820312 53.421875 C 48.101562 52.847656 48.441406 52.257812 48.75 51.6875 C 49.0625 51.132812 49.375 50.566406 49.695312 50.007812 C 50.324219 48.871094 50.972656 47.71875 51.628906 46.554688 C 52.234375 45.363281 52.808594 44.128906 53.414062 42.894531 C 53.714844 42.269531 54.011719 41.65625 54.3125 41.042969 C 54.59375 40.429688 54.835938 39.796875 55.101562 39.179688 C 55.621094 37.945312 56.132812 36.730469 56.628906 35.53125 C 57.109375 34.324219 57.53125 33.109375 57.96875 31.929688 C 58.183594 31.335938 58.398438 30.746094 58.617188 30.167969 C 58.722656 29.878906 58.828125 29.585938 58.929688 29.300781 C 59.050781 29 59.164062 28.703125 59.28125 28.410156 C 60.214844 26.125 61.140625 23.976562 61.878906 21.851562 C 62.628906 19.734375 63.242188 17.648438 63.457031 15.65625 Z M 65.496094 21.003906 C 65.863281 19.523438 66.199219 17.972656 65.792969 16.519531 C 65.625 15.949219 65.375 15.386719 65.050781 14.816406 C 65.039062 15.152344 65.019531 15.496094 64.980469 15.835938 C 64.863281 16.867188 64.644531 17.878906 64.378906 18.882812 C 63.847656 20.890625 63.121094 22.871094 62.324219 24.851562 C 61.539062 26.84375 60.628906 28.800781 59.902344 30.851562 C 58.394531 35.003906 56.742188 39.285156 54.691406 43.503906 C 54.179688 44.558594 53.671875 45.605469 53.171875 46.648438 C 52.652344 47.679688 52.058594 48.671875 51.511719 49.671875 C 50.957031 50.671875 50.40625 51.664062 49.859375 52.644531 C 49.328125 53.585938 48.847656 54.570312 48.398438 55.5625 C 46.613281 59.542969 45.167969 63.648438 42.644531 67.046875 C 41.996094 67.875 41.320312 68.691406 40.527344 69.359375 C 40.148438 69.695312 39.746094 70.0625 39.269531 70.339844 C 38.800781 70.636719 38.304688 70.847656 37.796875 71.019531 C 35.757812 71.65625 33.734375 71.488281 31.910156 71.1875 C 28.230469 70.527344 25.050781 69.253906 22.160156 68.238281 C 21.441406 67.984375 20.738281 67.738281 20.050781 67.515625 C 19.707031 67.402344 19.378906 67.300781 19.054688 67.210938 C 18.742188 67.128906 18.414062 67.054688 18.082031 66.992188 C 16.75 66.730469 15.449219 66.523438 14.238281 66.304688 C 11.808594 65.871094 9.714844 65.414062 8.003906 64.921875 C 6.300781 64.417969 4.992188 63.886719 4.121094 63.429688 C 3.902344 63.3125 3.710938 63.210938 3.550781 63.121094 C 3.386719 63.023438 3.25 62.9375 3.140625 62.871094 C 3.125 62.867188 3.121094 62.855469 3.105469 62.851562 C 3.371094 63.253906 3.683594 63.625 4.027344 63.953125 C 5.269531 65.140625 6.867188 65.871094 8.417969 66.460938 C 9.199219 66.75 9.972656 67.011719 10.757812 67.253906 C 11.53125 67.5 12.285156 67.78125 13.023438 68.035156 C 14.488281 68.546875 15.886719 69.054688 17.195312 69.496094 C 19.820312 70.378906 22.144531 71.222656 24.246094 71.804688 C 24.773438 71.945312 25.28125 72.082031 25.773438 72.21875 C 26.265625 72.351562 26.746094 72.449219 27.210938 72.5625 C 28.132812 72.800781 29.003906 72.941406 29.804688 73.105469 C 30.910156 73.3125 31.886719 73.445312 32.773438 73.539062 C 33.769531 73.578125 34.851562 73.601562 35.980469 73.449219 C 37.183594 73.304688 38.449219 73.027344 39.667969 72.464844 C 40.875 71.902344 42.019531 71.074219 43.011719 70.003906 C 43.53125 69.476562 43.925781 68.894531 44.375 68.273438 C 44.582031 67.929688 44.792969 67.582031 45.003906 67.230469 L 45.082031 67.101562 L 45.09375 67.078125 L 45.101562 67.066406 L 45.136719 66.996094 L 45.285156 66.730469 L 45.574219 66.1875 C 46.367188 64.742188 47.125 63.316406 47.894531 61.945312 C 48.292969 61.257812 48.683594 60.582031 49.066406 59.921875 C 49.464844 59.28125 49.867188 58.667969 50.257812 58.066406 C 50.449219 57.761719 50.644531 57.460938 50.835938 57.164062 C 51.015625 56.878906 51.191406 56.597656 51.367188 56.316406 C 51.453125 56.179688 51.542969 56.042969 51.632812 55.902344 C 51.703125 55.761719 51.785156 55.617188 51.859375 55.476562 C 52.015625 55.191406 52.167969 54.917969 52.320312 54.640625 C 52.898438 53.535156 53.394531 52.46875 53.847656 51.484375 C 54.734375 49.519531 55.511719 47.917969 56.121094 46.84375 C 56.316406 46.519531 56.488281 46.25 56.640625 46.027344 C 56.726562 45.820312 56.816406 45.609375 56.914062 45.371094 C 57.082031 44.976562 57.234375 44.519531 57.425781 44.019531 C 57.617188 43.527344 57.828125 42.980469 58.0625 42.386719 C 58.285156 41.777344 58.523438 41.121094 58.785156 40.410156 C 59.3125 38.992188 59.921875 37.347656 60.621094 35.460938 C 61.3125 33.570312 62.148438 31.464844 62.929688 29.070312 C 63.113281 28.46875 63.296875 27.851562 63.496094 27.214844 C 63.695312 26.554688 63.914062 25.878906 64.148438 25.210938 C 64.609375 23.867188 65.109375 22.46875 65.496094 21.003906 Z M 67.433594 17.542969 C 67.4375 17.773438 67.488281 18.015625 67.457031 18.234375 C 67.433594 18.457031 67.410156 18.683594 67.390625 18.902344 C 67.292969 19.785156 67.105469 20.59375 66.898438 21.371094 C 66.476562 22.929688 65.953125 24.34375 65.484375 25.675781 C 65.242188 26.339844 65.03125 26.980469 64.832031 27.601562 C 64.625 28.253906 64.421875 28.886719 64.226562 29.503906 C 63.386719 31.941406 62.5 34.042969 61.765625 35.90625 C 61.015625 37.773438 60.347656 39.394531 59.761719 40.796875 C 59.464844 41.496094 59.199219 42.148438 58.929688 42.738281 C 58.660156 43.324219 58.417969 43.863281 58.191406 44.351562 C 57.957031 44.835938 57.765625 45.277344 57.554688 45.664062 C 57.34375 46.042969 57.160156 46.378906 57 46.671875 C 56.871094 46.894531 56.757812 47.085938 56.652344 47.261719 C 56.238281 48.390625 55.652344 49.984375 54.929688 51.941406 C 54.546875 52.960938 54.097656 54.074219 53.550781 55.257812 C 53.40625 55.546875 53.261719 55.847656 53.113281 56.152344 C 53.039062 56.304688 52.964844 56.449219 52.886719 56.609375 C 52.804688 56.753906 52.714844 56.902344 52.628906 57.058594 C 52.453125 57.363281 52.277344 57.667969 52.09375 57.980469 C 51.925781 58.269531 51.734375 58.582031 51.550781 58.882812 C 51.183594 59.5 50.796875 60.125 50.414062 60.761719 C 50.054688 61.410156 49.691406 62.066406 49.316406 62.738281 C 48.578125 64.109375 47.816406 65.53125 47.03125 66.988281 L 46.738281 67.535156 L 46.589844 67.804688 L 46.554688 67.875 L 46.496094 67.96875 L 46.417969 68.101562 C 46.207031 68.445312 45.992188 68.796875 45.785156 69.136719 C 45.292969 69.828125 44.777344 70.550781 44.191406 71.125 C 43.050781 72.324219 41.691406 73.269531 40.285156 73.867188 C 38.871094 74.476562 37.433594 74.726562 36.105469 74.828125 C 34.777344 74.9375 33.550781 74.828125 32.449219 74.703125 C 31.296875 74.542969 30.277344 74.328125 29.40625 74.105469 C 28.644531 73.988281 27.828125 73.875 26.96875 73.683594 C 26.492188 73.582031 26 73.492188 25.492188 73.375 C 24.988281 73.246094 24.46875 73.117188 23.925781 72.992188 C 21.777344 72.453125 19.417969 71.644531 16.75 70.789062 C 15.414062 70.355469 14.046875 69.875 12.578125 69.382812 C 11.847656 69.136719 11.105469 68.863281 10.328125 68.621094 C 9.550781 68.394531 8.734375 68.121094 7.910156 67.824219 C 6.277344 67.210938 4.511719 66.445312 3.007812 65.019531 C 2.265625 64.316406 1.605469 63.425781 1.214844 62.390625 C 0.929688 61.664062 0.777344 60.894531 0.714844 60.113281 C 0.574219 59.714844 0.527344 59.34375 0.511719 59.023438 C 0.460938 58.851562 0.414062 58.667969 0.371094 58.472656 C 0.00390625 56.851562 0.148438 54.449219 1.011719 51.628906 C 1.867188 48.800781 3.367188 45.503906 5.433594 41.78125 C 7.5 38.054688 10.15625 33.910156 13.199219 29.273438 C 13.957031 28.113281 14.691406 26.988281 15.367188 25.886719 C 15.707031 25.34375 16.03125 24.796875 16.308594 24.269531 C 16.582031 23.710938 16.847656 23.148438 17.113281 22.609375 C 17.628906 21.515625 18.15625 20.476562 18.609375 19.441406 C 19.046875 18.390625 19.46875 17.386719 19.871094 16.417969 C 21.453125 12.527344 22.667969 9.195312 23.675781 6.535156 C 23.796875 6.203125 23.921875 5.882812 24.039062 5.570312 C 24.15625 5.242188 24.246094 4.933594 24.390625 4.613281 C 24.625 3.988281 24.949219 3.414062 25.28125 2.898438 C 25.601562 2.417969 25.980469 2.023438 26.367188 1.683594 C 26.367188 1.675781 26.363281 1.679688 26.363281 1.671875 C 26.363281 1.410156 26.675781 1.210938 27.371094 1.054688 C 27.5 0.988281 27.628906 0.988281 27.753906 0.941406 C 29.898438 0.0976562 31.007812 0.882812 32.988281 1.226562 C 33.898438 1.382812 35.234375 1.644531 36.9375 2.046875 C 37.78125 2.246094 38.722656 2.472656 39.742188 2.746094 C 40.246094 2.878906 40.773438 3.015625 41.320312 3.160156 C 41.597656 3.234375 41.875 3.304688 42.160156 3.382812 C 42.433594 3.4375 42.714844 3.496094 43 3.554688 C 45.375 4.007812 48.144531 4.40625 51.1875 5.019531 C 52.714844 5.328125 54.304688 5.683594 55.949219 6.160156 C 57.59375 6.640625 59.296875 7.226562 60.964844 8.140625 C 63.539062 9.550781 64.570312 11.160156 66.03125 13.550781 C 66.515625 14.335938 66.953125 15.210938 67.210938 16.128906 C 67.261719 16.367188 67.3125 16.601562 67.367188 16.832031 C 67.417969 17.0625 67.410156 17.304688 67.433594 17.542969 " fill-opacity="1" fill-rule="nonzero"/></g><path fill="#000000" d="M 58.425781 22.265625 C 58.539062 22.289062 58.589844 22.558594 58.578125 23.035156 C 58.5625 23.5 58.5 24.179688 58.285156 25.015625 C 58.078125 25.832031 57.726562 26.894531 56.796875 27.824219 C 56.335938 28.292969 55.714844 28.648438 55.046875 28.855469 C 54.726562 28.980469 54.34375 29.03125 53.996094 29.089844 C 53.84375 29.097656 53.691406 29.113281 53.539062 29.121094 L 53.417969 29.132812 L 53.320312 29.136719 L 53.261719 29.132812 L 53.011719 29.128906 C 51.675781 29.140625 50.433594 28.875 49.355469 28.582031 C 49.089844 28.5 48.828125 28.421875 48.574219 28.34375 C 48.328125 28.25 48.085938 28.167969 47.855469 28.082031 C 47.394531 27.910156 46.980469 27.722656 46.597656 27.550781 C 45.09375 26.835938 44.253906 26.261719 44.335938 26.054688 C 44.417969 25.832031 45.4375 26.074219 47 26.488281 C 49.140625 27.066406 52.375 28.046875 54.574219 27.296875 C 55.03125 27.171875 55.4375 26.976562 55.761719 26.691406 C 56.425781 26.136719 56.863281 25.328125 57.179688 24.625 C 57.816406 23.1875 58.191406 22.199219 58.425781 22.265625 " fill-opacity="1" fill-rule="nonzero"/><path fill="#000000" d="M 51.296875 23.777344 C 52.902344 24.253906 55.234375 20.183594 55.527344 18.761719 C 55.527344 18.539062 39.792969 14.160156 38.328125 13.742188 C 36.253906 13.164062 34.316406 12.21875 32.253906 11.644531 C 30.140625 11.0625 29.246094 11.515625 28.449219 13.710938 C 28.1875 14.429688 27.925781 15.101562 27.570312 15.757812 C 32.917969 17.945312 38.386719 19.898438 43.925781 21.53125 C 45.347656 21.949219 46.777344 22.28125 48.214844 22.636719 C 49.316406 22.90625 50.21875 23.457031 51.296875 23.777344 Z M 56.90625 18.40625 C 57.113281 19.863281 55.179688 22.570312 54.433594 23.757812 C 53.144531 25.800781 51.570312 25.398438 49.597656 24.523438 C 47.714844 23.683594 45.546875 23.421875 43.566406 22.839844 C 41.503906 22.230469 39.4375 21.625 37.40625 20.902344 C 33.683594 19.582031 29.953125 18.210938 26.304688 16.691406 C 25.683594 16.4375 25.765625 15.578125 26.210938 15.375 C 27.1875 13.558594 27.703125 9.945312 30.25 9.960938 C 32.898438 9.980469 35.285156 11.480469 37.785156 12.1875 C 41.976562 13.367188 46.140625 14.621094 50.320312 15.835938 C 52.074219 16.34375 53.949219 16.6875 55.664062 17.292969 C 56.269531 17.511719 56.800781 17.710938 56.90625 18.40625 " fill-opacity="1" fill-rule="nonzero"/><path fill="#000000" d="M 53 35.226562 C 53.140625 35.054688 54.195312 33.714844 53.570312 33.542969 C 53.152344 33.425781 52.714844 33.363281 52.304688 33.234375 C 51.078125 32.855469 49.882812 32.261719 48.707031 31.738281 C 47.796875 31.339844 46.535156 30.722656 46.175781 32.214844 C 46.136719 32.390625 46.089844 32.558594 46.042969 32.730469 C 47.480469 33.09375 49.367188 34.355469 50.140625 34.730469 C 50.910156 35.085938 52.316406 36.058594 53 35.226562 Z M 54.652344 32.460938 C 56.011719 33.558594 54.742188 35.582031 53.796875 36.511719 C 52.585938 37.710938 50.632812 36.582031 49.394531 36.007812 C 48.707031 35.675781 48.027344 35.328125 47.335938 35.003906 C 45.242188 34.03125 43.808594 34.464844 44.804688 31.816406 C 45.296875 30.488281 46.011719 28.910156 47.714844 29.617188 C 49.140625 30.207031 50.546875 30.898438 51.964844 31.523438 C 52.792969 31.882812 53.941406 31.878906 54.652344 32.460938 " fill-opacity="1" fill-rule="nonzero"/><path fill="#000000" d="M 50.429688 41.769531 C 50.320312 40.664062 48.328125 40.128906 47.445312 39.953125 C 46.628906 39.78125 46.4375 39.835938 46.132812 40.613281 C 45.925781 41.132812 45.640625 41.625 45.460938 42.152344 C 45.152344 43.085938 45.234375 43.691406 46.179688 44.109375 C 46.695312 44.347656 47.285156 44.546875 47.847656 44.628906 C 49.609375 44.898438 50.375 43.273438 50.429688 41.769531 Z M 51.777344 41.769531 C 51.789062 41.851562 51.777344 41.921875 51.765625 41.992188 C 51.609375 44.113281 50.253906 46.359375 47.808594 45.988281 C 46.03125 45.71875 43.40625 44.761719 43.964844 42.46875 C 44.230469 41.371094 44.738281 40.09375 45.335938 39.128906 C 45.8125 38.355469 46.824219 38.441406 47.601562 38.597656 C 49.199219 38.929688 51.355469 39.707031 51.734375 41.484375 C 51.769531 41.566406 51.785156 41.660156 51.777344 41.769531 " fill-opacity="1" fill-rule="nonzero"/><path fill="#000000" d="M 47 49.386719 C 46.890625 48.28125 44.894531 47.746094 44.019531 47.566406 C 43.195312 47.398438 43.011719 47.453125 42.699219 48.230469 C 42.492188 48.75 42.207031 49.238281 42.03125 49.769531 C 41.726562 50.699219 41.804688 51.304688 42.75 51.726562 C 43.273438 51.964844 43.851562 52.164062 44.417969 52.246094 C 46.179688 52.515625 46.941406 50.890625 47 49.386719 Z M 48.351562 49.386719 C 48.355469 49.46875 48.351562 49.539062 48.335938 49.609375 C 48.175781 51.730469 46.820312 53.976562 44.378906 53.601562 C 42.601562 53.332031 39.976562 52.378906 40.53125 50.082031 C 40.800781 48.984375 41.304688 47.710938 41.902344 46.75 C 42.386719 45.976562 43.398438 46.058594 44.167969 46.214844 C 45.773438 46.546875 47.929688 47.320312 48.304688 49.101562 C 48.335938 49.179688 48.355469 49.277344 48.351562 49.386719 " fill-opacity="1" fill-rule="nonzero"/><path fill="#000000" d="M 42.488281 38.410156 C 42.359375 37.257812 39.96875 36.738281 39.066406 36.574219 C 38.585938 36.476562 37.917969 36.253906 37.667969 36.8125 C 37.421875 37.351562 37.152344 37.882812 36.894531 38.421875 C 36.308594 39.671875 36.542969 40.496094 37.886719 40.929688 C 38.402344 41.09375 38.9375 41.265625 39.476562 41.339844 C 41.367188 41.589844 42.414062 40.15625 42.488281 38.410156 Z M 43.964844 38.410156 C 43.980469 38.519531 43.964844 38.613281 43.941406 38.695312 C 43.722656 41.046875 42.070312 43.167969 39.476562 42.816406 C 37.582031 42.5625 34.285156 41.601562 35.09375 39.007812 C 35.410156 37.984375 35.964844 36.273438 36.746094 35.511719 C 37.421875 34.855469 38.332031 34.929688 39.203125 35.097656 C 40.9375 35.421875 43.433594 36.152344 43.902344 38.074219 C 43.945312 38.167969 43.96875 38.277344 43.964844 38.410156 " fill-opacity="1" fill-rule="nonzero"/><path fill="#000000" d="M 40.445312 61.742188 C 40.847656 60.976562 41.492188 59.792969 41.121094 58.890625 C 40.292969 56.90625 38.082031 57.253906 36.949219 58.589844 C 36.203125 59.472656 35.632812 60.449219 35.097656 61.46875 C 34.550781 62.519531 33.273438 64.296875 33.390625 65.476562 C 33.511719 66.707031 35.582031 66.902344 36.835938 67.027344 C 37.132812 66.542969 37.417969 66.058594 37.726562 65.585938 C 38.652344 64.328125 39.710938 63.125 40.445312 61.742188 Z M 42.65625 59.085938 C 42.824219 61.898438 40.546875 64.230469 39 66.332031 C 38.609375 66.9375 38.246094 67.5625 37.867188 68.179688 C 37.671875 68.488281 37.375 68.570312 37.03125 68.519531 C 35.421875 68.285156 31.644531 67.984375 31.910156 65.476562 C 32.121094 63.574219 33.265625 61.691406 34.183594 60.050781 C 34.855469 58.851562 35.664062 57.472656 36.847656 56.699219 C 38.898438 55.351562 42.484375 56.226562 42.65625 59.085938 " fill-opacity="1" fill-rule="nonzero"/><path fill="#000000" d="M 40.691406 32.265625 C 40.835938 32.09375 41.886719 30.761719 41.261719 30.585938 C 40.84375 30.46875 40.40625 30.40625 39.996094 30.277344 C 38.765625 29.898438 37.574219 29.304688 36.398438 28.78125 C 35.488281 28.382812 34.226562 27.765625 33.867188 29.253906 C 33.828125 29.433594 33.777344 29.601562 33.734375 29.773438 C 35.171875 30.132812 37.058594 31.394531 37.828125 31.777344 C 38.601562 32.128906 40.007812 33.101562 40.691406 32.265625 Z M 42.347656 29.503906 C 43.703125 30.601562 42.433594 32.621094 41.488281 33.554688 C 40.277344 34.753906 38.324219 33.625 37.089844 33.050781 C 36.398438 32.71875 35.71875 32.371094 35.03125 32.046875 C 34.476562 31.796875 31.636719 31.3125 32.023438 30.304688 C 32.589844 28.796875 33.03125 25.675781 35.410156 26.65625 C 36.832031 27.246094 38.242188 27.941406 39.65625 28.5625 C 40.484375 28.925781 41.632812 28.917969 42.347656 29.503906 " fill-opacity="1" fill-rule="nonzero"/><path fill="#000000" d="M 38.550781 46.296875 C 38.421875 45.144531 36.03125 44.628906 35.125 44.460938 C 34.644531 44.367188 33.980469 44.144531 33.726562 44.703125 C 33.484375 45.238281 33.214844 45.773438 32.957031 46.308594 C 32.371094 47.5625 32.601562 48.382812 33.949219 48.820312 C 34.460938 48.980469 35 49.152344 35.539062 49.226562 C 37.425781 49.480469 38.476562 48.046875 38.550781 46.296875 Z M 40.027344 46.296875 C 40.042969 46.40625 40.027344 46.503906 40 46.585938 C 39.785156 48.9375 38.132812 51.058594 35.539062 50.707031 C 33.640625 50.449219 30.347656 49.488281 31.15625 46.894531 C 31.46875 45.871094 32.023438 44.164062 32.808594 43.402344 C 33.484375 42.746094 34.394531 42.816406 35.265625 42.984375 C 37 43.3125 39.492188 44.042969 39.960938 45.964844 C 40.007812 46.058594 40.03125 46.164062 40.027344 46.296875 " fill-opacity="1" fill-rule="nonzero"/><path fill="#000000" d="M 35.101562 53.695312 C 34.972656 52.542969 32.582031 52.023438 31.683594 51.855469 C 31.199219 51.761719 30.535156 51.539062 30.285156 52.097656 C 30.039062 52.632812 29.765625 53.167969 29.511719 53.707031 C 28.921875 54.957031 29.15625 55.78125 30.5 56.214844 C 31.019531 56.375 31.554688 56.550781 32.089844 56.621094 C 33.980469 56.875 35.03125 55.441406 35.101562 53.695312 Z M 36.582031 53.695312 C 36.59375 53.800781 36.582031 53.894531 36.554688 53.980469 C 36.339844 56.332031 34.683594 58.449219 32.089844 58.101562 C 30.195312 57.847656 26.898438 56.882812 27.707031 54.289062 C 28.023438 53.265625 28.582031 51.558594 29.363281 50.796875 C 30.039062 50.140625 30.949219 50.210938 31.820312 50.382812 C 33.550781 50.707031 36.046875 51.4375 36.515625 53.359375 C 36.558594 53.453125 36.585938 53.5625 36.582031 53.695312 " fill-opacity="1" fill-rule="nonzero"/><path fill="#000000" d="M 33.625 36.441406 C 33.5 35.285156 31.105469 34.769531 30.203125 34.597656 C 29.722656 34.507812 29.054688 34.285156 28.804688 34.839844 C 28.558594 35.378906 28.289062 35.914062 28.03125 36.449219 C 27.449219 37.699219 27.675781 38.523438 29.023438 38.957031 C 29.539062 39.121094 30.074219 39.292969 30.613281 39.367188 C 32.503906 39.617188 33.550781 38.183594 33.625 36.441406 Z M 35.101562 36.441406 C 35.121094 36.546875 35.101562 36.640625 35.078125 36.726562 C 34.859375 39.074219 33.207031 41.195312 30.613281 40.847656 C 28.71875 40.589844 25.421875 39.628906 26.230469 37.035156 C 26.546875 36.007812 27.101562 34.304688 27.886719 33.539062 C 28.558594 32.882812 29.472656 32.957031 30.339844 33.125 C 32.074219 33.449219 34.570312 34.179688 35.039062 36.101562 C 35.082031 36.199219 35.105469 36.304688 35.101562 36.441406 " fill-opacity="1" fill-rule="nonzero"/><path fill="#000000" d="M 33.226562 7.058594 C 34.261719 7.605469 34.808594 8.0625 34.734375 8.273438 C 34.65625 8.5 33.910156 8.410156 32.824219 8.164062 C 32.28125 8.042969 31.644531 7.890625 30.96875 7.792969 C 30.292969 7.695312 29.558594 7.660156 28.949219 7.84375 C 28.859375 7.859375 28.824219 7.890625 28.765625 7.90625 C 28.707031 7.9375 28.664062 7.925781 28.558594 8 L 28.324219 8.144531 L 28.308594 8.152344 L 28.269531 8.191406 L 28.191406 8.265625 C 28.136719 8.316406 28.082031 8.351562 28.027344 8.414062 L 27.867188 8.609375 C 27.753906 8.738281 27.644531 8.863281 27.546875 9.011719 C 27.132812 9.558594 26.792969 10.128906 26.480469 10.585938 C 26.183594 11.058594 25.9375 11.429688 25.726562 11.675781 C 25.527344 11.945312 25.367188 12.074219 25.257812 12.035156 C 25.148438 11.996094 25.105469 11.792969 25.117188 11.460938 C 25.144531 11.121094 25.246094 10.640625 25.417969 10.085938 C 25.613281 9.53125 25.851562 8.875 26.265625 8.171875 C 26.65625 7.496094 27.300781 6.578125 28.472656 6.25 C 29.535156 5.945312 30.492188 6.09375 31.273438 6.296875 C 32.0625 6.5 32.710938 6.789062 33.226562 7.058594 " fill-opacity="1" fill-rule="nonzero"/><path fill="#000000" d="M 30.671875 61.089844 C 30.542969 59.9375 28.152344 59.417969 27.25 59.25 C 26.769531 59.15625 26.101562 58.933594 25.851562 59.492188 C 25.605469 60.03125 25.335938 60.5625 25.078125 61.101562 C 24.492188 62.351562 24.722656 63.175781 26.070312 63.609375 C 26.585938 63.773438 27.121094 63.945312 27.660156 64.019531 C 29.550781 64.269531 30.597656 62.835938 30.671875 61.089844 Z M 32.148438 61.089844 C 32.164062 61.199219 32.148438 61.292969 32.125 61.375 C 31.910156 63.730469 30.253906 65.847656 27.660156 65.496094 C 25.765625 65.242188 22.46875 64.28125 23.277344 61.6875 C 23.59375 60.660156 24.148438 58.953125 24.929688 58.191406 C 25.605469 57.535156 26.515625 57.609375 27.386719 57.777344 C 29.121094 58.101562 31.617188 58.832031 32.085938 60.757812 C 32.128906 60.847656 32.152344 60.957031 32.148438 61.089844 " fill-opacity="1" fill-rule="nonzero"/><path fill="#000000" d="M 29.6875 44.328125 C 29.558594 43.171875 27.164062 42.65625 26.265625 42.488281 C 25.785156 42.394531 25.117188 42.171875 24.867188 42.730469 C 24.621094 43.269531 24.351562 43.800781 24.09375 44.335938 C 23.507812 45.589844 23.738281 46.414062 25.082031 46.84375 C 25.601562 47.011719 26.136719 47.183594 26.675781 47.257812 C 28.5625 47.507812 29.613281 46.070312 29.6875 44.328125 Z M 31.164062 44.328125 C 31.179688 44.4375 31.164062 44.53125 31.140625 44.613281 C 30.921875 46.964844 29.269531 49.085938 26.675781 48.734375 C 24.777344 48.476562 21.484375 47.519531 22.292969 44.925781 C 22.605469 43.898438 23.164062 42.191406 23.949219 41.425781 C 24.621094 40.773438 25.53125 40.847656 26.40625 41.011719 C 28.136719 41.339844 30.632812 42.066406 31.101562 43.992188 C 31.144531 44.085938 31.171875 44.195312 31.164062 44.328125 " fill-opacity="1" fill-rule="nonzero"/><path fill="#000000" d="M 28.875 28.324219 C 29.019531 28.148438 30.070312 26.816406 29.445312 26.644531 C 29.027344 26.523438 28.589844 26.460938 28.179688 26.332031 C 26.949219 25.953125 25.757812 25.359375 24.582031 24.839844 C 23.671875 24.4375 22.410156 23.824219 22.050781 25.308594 C 22.011719 25.488281 21.960938 25.65625 21.917969 25.828125 C 23.355469 26.1875 25.238281 27.449219 26.015625 27.832031 C 26.789062 28.183594 28.191406 29.15625 28.875 28.324219 Z M 30.53125 25.558594 C 31.886719 26.65625 30.617188 28.675781 29.671875 29.609375 C 28.460938 30.808594 26.503906 29.679688 25.269531 29.109375 C 24.582031 28.773438 23.902344 28.425781 23.214844 28.101562 C 22.425781 27.738281 21.71875 27.578125 21.214844 27.351562 C 20.5 27.027344 20.1875 26.5625 20.601562 25.15625 C 21.019531 23.753906 21.820312 21.976562 23.59375 22.710938 C 25.015625 23.304688 26.421875 23.996094 27.839844 24.621094 C 28.667969 24.980469 29.816406 24.976562 30.53125 25.558594 " fill-opacity="1" fill-rule="nonzero"/><path fill="#000000" d="M 26.238281 51.722656 C 26.113281 50.566406 23.722656 50.050781 22.820312 49.882812 C 22.335938 49.789062 21.671875 49.570312 21.421875 50.125 C 21.175781 50.664062 20.902344 51.195312 20.648438 51.730469 C 20.0625 52.984375 20.292969 53.808594 21.636719 54.242188 C 22.15625 54.40625 22.691406 54.574219 23.226562 54.652344 C 25.117188 54.902344 26.167969 53.46875 26.238281 51.722656 Z M 27.71875 51.722656 C 27.734375 51.832031 27.71875 51.925781 27.695312 52.007812 C 27.476562 54.359375 25.828125 56.480469 23.226562 56.128906 C 21.332031 55.875 18.035156 54.914062 18.847656 52.320312 C 19.160156 51.292969 19.71875 49.589844 20.5 48.824219 C 21.175781 48.167969 22.085938 48.242188 22.957031 48.410156 C 24.6875 48.734375 27.1875 49.464844 27.65625 51.386719 C 27.699219 51.480469 27.722656 51.589844 27.71875 51.722656 " fill-opacity="1" fill-rule="nonzero"/><path fill="#000000" d="M 23.777344 33.480469 C 23.652344 32.328125 21.257812 31.808594 20.359375 31.640625 C 19.875 31.546875 19.210938 31.324219 18.960938 31.882812 C 18.714844 32.421875 18.441406 32.953125 18.1875 33.492188 C 17.601562 34.742188 17.832031 35.566406 19.175781 36 C 19.695312 36.160156 20.230469 36.335938 20.765625 36.40625 C 22.65625 36.660156 23.707031 35.226562 23.777344 33.480469 Z M 25.257812 33.480469 C 25.269531 33.589844 25.257812 33.683594 25.230469 33.765625 C 25.015625 36.117188 23.367188 38.238281 20.765625 37.886719 C 18.871094 37.632812 15.574219 36.667969 16.386719 34.078125 C 16.699219 33.050781 17.257812 31.34375 18.035156 30.582031 C 18.714844 29.925781 19.625 30 20.496094 30.167969 C 22.226562 30.492188 24.722656 31.222656 25.191406 33.144531 C 25.234375 33.238281 25.261719 33.347656 25.257812 33.480469 " fill-opacity="1" fill-rule="nonzero"/><path fill="#000000" d="M 21.808594 59.117188 C 21.683594 57.964844 19.289062 57.449219 18.386719 57.277344 C 17.90625 57.1875 17.238281 56.964844 16.992188 57.519531 C 16.746094 58.058594 16.472656 58.589844 16.21875 59.128906 C 15.632812 60.382812 15.863281 61.203125 17.207031 61.636719 C 17.722656 61.800781 18.257812 61.972656 18.796875 62.046875 C 20.6875 62.296875 21.734375 60.863281 21.808594 59.117188 Z M 23.289062 59.117188 C 23.304688 59.226562 23.289062 59.320312 23.261719 59.402344 C 23.046875 61.753906 21.398438 63.875 18.796875 63.527344 C 16.902344 63.269531 13.605469 62.308594 14.414062 59.714844 C 14.730469 58.6875 15.285156 56.984375 16.070312 56.21875 C 16.746094 55.5625 17.652344 55.636719 18.527344 55.804688 C 20.257812 56.128906 22.753906 56.859375 23.222656 58.78125 C 23.265625 58.875 23.292969 58.984375 23.289062 59.117188 " fill-opacity="1" fill-rule="nonzero"/><path fill="#000000" d="M 19.839844 41.371094 C 19.714844 40.214844 17.320312 39.699219 16.417969 39.53125 C 15.9375 39.4375 15.269531 39.214844 15.019531 39.773438 C 14.773438 40.308594 14.503906 40.84375 14.246094 41.378906 C 13.664062 42.632812 13.894531 43.453125 15.238281 43.886719 C 15.753906 44.050781 16.289062 44.222656 16.828125 44.296875 C 18.71875 44.550781 19.765625 43.117188 19.839844 41.371094 Z M 21.316406 41.371094 C 21.332031 41.476562 21.316406 41.570312 21.292969 41.65625 C 21.074219 44.003906 19.429688 46.128906 16.828125 45.777344 C 14.933594 45.519531 11.636719 44.558594 12.445312 41.964844 C 12.761719 40.941406 13.316406 39.234375 14.101562 38.46875 C 14.773438 37.8125 15.683594 37.886719 16.554688 38.054688 C 18.289062 38.382812 20.785156 39.109375 21.253906 41.03125 C 21.296875 41.128906 21.320312 41.234375 21.316406 41.371094 " fill-opacity="1" fill-rule="nonzero"/><path fill="#000000" d="M 16.394531 48.761719 C 16.265625 47.609375 13.871094 47.09375 12.972656 46.925781 C 12.488281 46.832031 11.824219 46.609375 11.574219 47.167969 C 11.328125 47.703125 11.054688 48.238281 10.800781 48.773438 C 10.214844 50.027344 10.449219 50.851562 11.789062 51.285156 C 12.308594 51.445312 12.84375 51.621094 13.382812 51.691406 C 15.269531 51.945312 16.320312 50.511719 16.394531 48.761719 Z M 17.871094 48.761719 C 17.886719 48.871094 17.871094 48.96875 17.847656 49.050781 C 17.628906 51.402344 15.980469 53.523438 13.382812 53.171875 C 11.484375 52.914062 8.191406 51.953125 9 49.359375 C 9.316406 48.335938 9.871094 46.628906 10.652344 45.867188 C 11.328125 45.210938 12.238281 45.28125 13.109375 45.449219 C 14.84375 45.777344 17.339844 46.507812 17.808594 48.429688 C 17.851562 48.523438 17.875 48.628906 17.871094 48.761719 " fill-opacity="1" fill-rule="nonzero"/><path fill="#000000" d="M 11.964844 56.160156 C 11.835938 55.007812 9.441406 54.488281 8.542969 54.320312 C 8.058594 54.226562 7.394531 54.003906 7.144531 54.5625 C 6.898438 55.101562 6.625 55.632812 6.371094 56.171875 C 5.785156 57.421875 6.015625 58.246094 7.359375 58.679688 C 7.878906 58.839844 8.414062 59.015625 8.949219 59.085938 C 10.839844 59.339844 11.890625 57.90625 11.964844 56.160156 Z M 13.441406 56.160156 C 13.453125 56.269531 13.441406 56.359375 13.417969 56.445312 C 13.199219 58.796875 11.550781 60.917969 8.949219 60.566406 C 7.054688 60.3125 3.761719 59.347656 4.566406 56.753906 C 4.882812 55.730469 5.441406 54.023438 6.222656 53.261719 C 6.898438 52.605469 7.808594 52.679688 8.679688 52.847656 C 10.410156 53.171875 12.910156 53.902344 13.375 55.824219 C 13.421875 55.917969 13.445312 56.027344 13.441406 56.160156 " fill-opacity="1" fill-rule="nonzero"/><path fill="#ffffff" d="M 62.507812 63.054688 L 216.433594 63.054688 L 216.433594 65.304688 L 62.507812 65.304688 Z M 62.507812 63.054688 " fill-opacity="1" fill-rule="nonzero"/><g fill="#ffffff" fill-opacity="1"><g transform="translate(62.508956, 61.555474)"><g><path d="M 11.71875 -16.15625 L 11.71875 -14.4375 L 7.328125 -14.4375 L 7.328125 0 L 5.21875 0 L 5.21875 -14.4375 L 0.78125 -14.4375 L 0.78125 -16.15625 Z M 11.71875 -16.15625 "/></g></g></g><g fill="#ffffff" fill-opacity="1"><g transform="translate(75.042462, 61.555474)"><g><path d="M 8.09375 -12.9375 C 9.050781 -12.9375 9.914062 -12.726562 10.6875 -12.3125 C 11.457031 -11.90625 12.0625 -11.289062 12.5 -10.46875 C 12.9375 -9.65625 13.15625 -8.660156 13.15625 -7.484375 L 13.15625 0 L 11.078125 0 L 11.078125 -7.1875 C 11.078125 -8.445312 10.757812 -9.410156 10.125 -10.078125 C 9.488281 -10.753906 8.625 -11.09375 7.53125 -11.09375 C 6.414062 -11.09375 5.53125 -10.742188 4.875 -10.046875 C 4.21875 -9.359375 3.890625 -8.347656 3.890625 -7.015625 L 3.890625 0 L 1.78125 0 L 1.78125 -17.140625 L 3.890625 -17.140625 L 3.890625 -10.890625 C 4.304688 -11.535156 4.878906 -12.035156 5.609375 -12.390625 C 6.347656 -12.753906 7.175781 -12.9375 8.09375 -12.9375 Z M 8.09375 -12.9375 "/></g></g></g><g fill="#ffffff" fill-opacity="1"><g transform="translate(89.869525, 61.555474)"><g><path d="M 13.375 -6.828125 C 13.375 -6.429688 13.347656 -6.007812 13.296875 -5.5625 L 3.15625 -5.5625 C 3.226562 -4.3125 3.65625 -3.332031 4.4375 -2.625 C 5.21875 -1.925781 6.164062 -1.578125 7.28125 -1.578125 C 8.1875 -1.578125 8.941406 -1.785156 9.546875 -2.203125 C 10.160156 -2.628906 10.59375 -3.203125 10.84375 -3.921875 L 13.109375 -3.921875 C 12.773438 -2.691406 12.097656 -1.695312 11.078125 -0.9375 C 10.054688 -0.175781 8.789062 0.203125 7.28125 0.203125 C 6.070312 0.203125 4.992188 -0.0625 4.046875 -0.59375 C 3.097656 -1.132812 2.351562 -1.90625 1.8125 -2.90625 C 1.269531 -3.90625 1 -5.0625 1 -6.375 C 1 -7.6875 1.257812 -8.835938 1.78125 -9.828125 C 2.3125 -10.816406 3.050781 -11.578125 4 -12.109375 C 4.945312 -12.640625 6.039062 -12.90625 7.28125 -12.90625 C 8.476562 -12.90625 9.539062 -12.640625 10.46875 -12.109375 C 11.394531 -11.585938 12.109375 -10.867188 12.609375 -9.953125 C 13.117188 -9.035156 13.375 -7.992188 13.375 -6.828125 Z M 11.1875 -7.28125 C 11.1875 -8.082031 11.007812 -8.769531 10.65625 -9.34375 C 10.300781 -9.925781 9.816406 -10.367188 9.203125 -10.671875 C 8.597656 -10.972656 7.925781 -11.125 7.1875 -11.125 C 6.113281 -11.125 5.203125 -10.78125 4.453125 -10.09375 C 3.710938 -9.414062 3.285156 -8.476562 3.171875 -7.28125 Z M 11.1875 -7.28125 "/></g></g></g><g fill="#ffffff" fill-opacity="1"><g transform="translate(104.233246, 61.555474)"><g/></g></g><g fill="#ffffff" fill-opacity="1"><g transform="translate(110.41891, 61.555474)"><g><path d="M 1 -8.09375 C 1 -9.664062 1.351562 -11.082031 2.0625 -12.34375 C 2.769531 -13.601562 3.738281 -14.585938 4.96875 -15.296875 C 6.195312 -16.003906 7.5625 -16.359375 9.0625 -16.359375 C 10.820312 -16.359375 12.359375 -15.929688 13.671875 -15.078125 C 14.984375 -14.234375 15.941406 -13.03125 16.546875 -11.46875 L 14.015625 -11.46875 C 13.566406 -12.445312 12.921875 -13.195312 12.078125 -13.71875 C 11.242188 -14.238281 10.238281 -14.5 9.0625 -14.5 C 7.9375 -14.5 6.925781 -14.238281 6.03125 -13.71875 C 5.132812 -13.195312 4.429688 -12.453125 3.921875 -11.484375 C 3.410156 -10.515625 3.15625 -9.382812 3.15625 -8.09375 C 3.15625 -6.800781 3.410156 -5.671875 3.921875 -4.703125 C 4.429688 -3.742188 5.132812 -3 6.03125 -2.46875 C 6.925781 -1.945312 7.9375 -1.6875 9.0625 -1.6875 C 10.238281 -1.6875 11.242188 -1.945312 12.078125 -2.46875 C 12.921875 -2.988281 13.566406 -3.734375 14.015625 -4.703125 L 16.546875 -4.703125 C 15.941406 -3.160156 14.984375 -1.96875 13.671875 -1.125 C 12.359375 -0.28125 10.820312 0.140625 9.0625 0.140625 C 7.5625 0.140625 6.195312 -0.207031 4.96875 -0.90625 C 3.738281 -1.613281 2.769531 -2.59375 2.0625 -3.84375 C 1.351562 -5.09375 1 -6.507812 1 -8.09375 Z M 1 -8.09375 "/></g></g></g><g fill="#ffffff" fill-opacity="1"><g transform="translate(128.304056, 61.555474)"><g><path d="M 1 -6.390625 C 1 -7.691406 1.257812 -8.832031 1.78125 -9.8125 C 2.3125 -10.789062 3.035156 -11.550781 3.953125 -12.09375 C 4.867188 -12.632812 5.890625 -12.90625 7.015625 -12.90625 C 8.128906 -12.90625 9.09375 -12.664062 9.90625 -12.1875 C 10.726562 -11.707031 11.34375 -11.101562 11.75 -10.375 L 11.75 -12.703125 L 13.875 -12.703125 L 13.875 0 L 11.75 0 L 11.75 -2.359375 C 11.332031 -1.617188 10.707031 -1.003906 9.875 -0.515625 C 9.050781 -0.0351562 8.09375 0.203125 7 0.203125 C 5.875 0.203125 4.851562 -0.0703125 3.9375 -0.625 C 3.03125 -1.175781 2.3125 -1.953125 1.78125 -2.953125 C 1.257812 -3.960938 1 -5.109375 1 -6.390625 Z M 11.75 -6.375 C 11.75 -7.332031 11.554688 -8.164062 11.171875 -8.875 C 10.785156 -9.582031 10.265625 -10.125 9.609375 -10.5 C 8.953125 -10.882812 8.226562 -11.078125 7.4375 -11.078125 C 6.644531 -11.078125 5.925781 -10.890625 5.28125 -10.515625 C 4.632812 -10.148438 4.117188 -9.609375 3.734375 -8.890625 C 3.347656 -8.179688 3.15625 -7.347656 3.15625 -6.390625 C 3.15625 -5.421875 3.347656 -4.578125 3.734375 -3.859375 C 4.117188 -3.140625 4.632812 -2.585938 5.28125 -2.203125 C 5.925781 -1.828125 6.644531 -1.640625 7.4375 -1.640625 C 8.226562 -1.640625 8.953125 -1.828125 9.609375 -2.203125 C 10.265625 -2.585938 10.785156 -3.140625 11.171875 -3.859375 C 11.554688 -4.578125 11.75 -5.414062 11.75 -6.375 Z M 11.75 -6.375 "/></g></g></g><g fill="#ffffff" fill-opacity="1"><g transform="translate(143.965143, 61.555474)"><g><path d="M 3.890625 -17.140625 L 3.890625 0 L 1.78125 0 L 1.78125 -17.140625 Z M 3.890625 -17.140625 "/></g></g></g><g fill="#ffffff" fill-opacity="1"><g transform="translate(149.664291, 61.555474)"><g><path d="M 1 -6.375 C 1 -7.6875 1.257812 -8.832031 1.78125 -9.8125 C 2.3125 -10.789062 3.039062 -11.550781 3.96875 -12.09375 C 4.90625 -12.632812 5.976562 -12.90625 7.1875 -12.90625 C 8.75 -12.90625 10.035156 -12.523438 11.046875 -11.765625 C 12.054688 -11.015625 12.722656 -9.96875 13.046875 -8.625 L 10.78125 -8.625 C 10.5625 -9.394531 10.140625 -10.003906 9.515625 -10.453125 C 8.890625 -10.898438 8.113281 -11.125 7.1875 -11.125 C 5.976562 -11.125 5.003906 -10.707031 4.265625 -9.875 C 3.523438 -9.050781 3.15625 -7.882812 3.15625 -6.375 C 3.15625 -4.84375 3.523438 -3.660156 4.265625 -2.828125 C 5.003906 -1.992188 5.976562 -1.578125 7.1875 -1.578125 C 8.113281 -1.578125 8.882812 -1.789062 9.5 -2.21875 C 10.113281 -2.65625 10.539062 -3.273438 10.78125 -4.078125 L 13.046875 -4.078125 C 12.703125 -2.773438 12.019531 -1.734375 11 -0.953125 C 9.988281 -0.179688 8.71875 0.203125 7.1875 0.203125 C 5.976562 0.203125 4.90625 -0.0625 3.96875 -0.59375 C 3.039062 -1.132812 2.3125 -1.898438 1.78125 -2.890625 C 1.257812 -3.878906 1 -5.039062 1 -6.375 Z M 1 -6.375 "/></g></g></g><g fill="#ffffff" fill-opacity="1"><g transform="translate(163.726839, 61.555474)"><g/></g></g><g fill="#ffffff" fill-opacity="1"><g transform="translate(169.912503, 61.555474)"><g><path d="M 14.234375 -16.15625 L 14.234375 0 L 12.125 0 L 12.125 -7.328125 L 3.890625 -7.328125 L 3.890625 0 L 1.78125 0 L 1.78125 -16.15625 L 3.890625 -16.15625 L 3.890625 -9.0625 L 12.125 -9.0625 L 12.125 -16.15625 Z M 14.234375 -16.15625 "/></g></g></g><g fill="#ffffff" fill-opacity="1"><g transform="translate(185.94426, 61.555474)"><g><path d="M 13.046875 -12.703125 L 13.046875 0 L 10.9375 0 L 10.9375 -1.875 C 10.53125 -1.226562 9.96875 -0.722656 9.25 -0.359375 C 8.53125 0.00390625 7.738281 0.1875 6.875 0.1875 C 5.894531 0.1875 5.007812 -0.015625 4.21875 -0.421875 C 3.425781 -0.835938 2.800781 -1.453125 2.34375 -2.265625 C 1.894531 -3.085938 1.671875 -4.085938 1.671875 -5.265625 L 1.671875 -12.703125 L 3.75 -12.703125 L 3.75 -5.53125 C 3.75 -4.28125 4.066406 -3.316406 4.703125 -2.640625 C 5.335938 -1.972656 6.203125 -1.640625 7.296875 -1.640625 C 8.421875 -1.640625 9.304688 -1.988281 9.953125 -2.6875 C 10.609375 -3.382812 10.9375 -4.394531 10.9375 -5.71875 L 10.9375 -12.703125 Z M 13.046875 -12.703125 "/></g></g></g><g fill="#ffffff" fill-opacity="1"><g transform="translate(200.771323, 61.555474)"><g><path d="M 3.890625 -10.328125 C 4.328125 -11.085938 4.960938 -11.707031 5.796875 -12.1875 C 6.628906 -12.664062 7.578125 -12.90625 8.640625 -12.90625 C 9.785156 -12.90625 10.8125 -12.632812 11.71875 -12.09375 C 12.632812 -11.550781 13.351562 -10.789062 13.875 -9.8125 C 14.40625 -8.832031 14.671875 -7.691406 14.671875 -6.390625 C 14.671875 -5.109375 14.40625 -3.960938 13.875 -2.953125 C 13.351562 -1.953125 12.628906 -1.175781 11.703125 -0.625 C 10.785156 -0.0703125 9.765625 0.203125 8.640625 0.203125 C 7.546875 0.203125 6.582031 -0.0351562 5.75 -0.515625 C 4.925781 -0.992188 4.304688 -1.601562 3.890625 -2.34375 L 3.890625 0 L 1.78125 0 L 1.78125 -17.140625 L 3.890625 -17.140625 Z M 12.515625 -6.390625 C 12.515625 -7.347656 12.320312 -8.179688 11.9375 -8.890625 C 11.550781 -9.609375 11.03125 -10.148438 10.375 -10.515625 C 9.71875 -10.890625 8.992188 -11.078125 8.203125 -11.078125 C 7.429688 -11.078125 6.71875 -10.882812 6.0625 -10.5 C 5.40625 -10.125 4.878906 -9.578125 4.484375 -8.859375 C 4.085938 -8.140625 3.890625 -7.3125 3.890625 -6.375 C 3.890625 -5.414062 4.085938 -4.578125 4.484375 -3.859375 C 4.878906 -3.140625 5.40625 -2.585938 6.0625 -2.203125 C 6.71875 -1.828125 7.429688 -1.640625 8.203125 -1.640625 C 8.992188 -1.640625 9.71875 -1.828125 10.375 -2.203125 C 11.03125 -2.585938 11.550781 -3.140625 11.9375 -3.859375 C 12.320312 -4.578125 12.515625 -5.421875 12.515625 -6.390625 Z M 12.515625 -6.390625 "/></g></g></g></svg>